<?xml version="1.0" encoding="utf-8" ?><svg xmlns="http://www.w3.org/2000/svg" xmlns:xlink="http://www.w3.org/1999/xlink" width="1024" height="1024" viewBox="0 0 1024 1024"><path fill="#151517" d="M0 0L1024 0L1024 1024L0 1024L0 0Z"/><path fill="#465AEE" d="M503.857 413.698C504.011 413.666 504.164 413.634 504.317 413.603C532.654 410.878 548.543 421.191 570.203 437.56C577.937 443.007 586.003 448.793 593.521 454.429C611.413 467.664 618.63 495.068 597.269 509.226C583.199 518.551 568.686 527.695 554.584 537.035C549.309 540.53 543.652 544.393 537.935 547.085C532.91 549.468 527.504 550.944 521.965 551.444C521.397 551.554 520.823 551.659 520.248 551.728C510.671 552.881 500.148 551.865 491.047 548.622C478.954 544.312 460.754 530.921 449.577 523.663C441.436 518.376 432.536 513.393 424.925 507.391C418.804 502.564 414.713 497.303 413.897 489.276C412.982 480.285 416.41 470.279 422.06 463.312C429.071 454.666 472.874 423.952 483.507 419.029C490.074 415.989 496.693 414.464 503.857 413.698Z"/><path fill="#151517" d="M509.398 451.21C527.873 449.614 537.811 457.976 551.458 468.122L572.31 483.66C557.356 492.533 543.367 503.77 528.17 512.094C524.936 513.865 520.418 514.598 516.762 515.052C498.282 515.355 492.625 509.388 477.677 499.734L452.457 483.558C460.889 478.173 469.634 471.551 477.821 465.75C489.418 457.532 494.777 452.213 509.398 451.21Z"/><path fill="#465AEE" d="M510.213 579.574C519.795 579.016 529.25 584.897 530.353 594.442C531.57 604.981 530.994 617.587 530.986 628.22L531.013 694.628C540.047 688.512 549.297 683.019 558.488 677.193C564.35 673.478 572.775 669.193 576.414 663.371C576.753 654.71 576.223 645.381 576.366 636.648C576.549 614.254 609.903 611.442 612.327 634.429C613.006 642.718 612.413 651.366 612.511 659.638C612.889 691.599 585.418 701.577 562.609 716.39C547.586 726.147 534.544 737.102 516.339 739.485C494.482 739.913 482.505 729.869 465.258 718.258C446.901 705.9 416.857 694.618 413.175 670.594C412.135 663.806 411.509 638.889 412.736 632.619C413.201 630.116 414.18 627.736 415.611 625.63C421.768 616.689 433.209 616.261 441.456 622.301C452.708 630.539 445.975 649.607 448.137 661.253C449.414 668.128 457.598 670.842 462.67 674.48C473.016 681.374 483.841 687.515 494.184 694.364L494.036 630.125C494.031 622.626 494.107 614.873 494.022 607.395C493.868 593.953 494.326 582.782 510.213 579.574Z"/><path fill="#465AEE" d="M400.494 351.206C425.049 347.57 446.44 365.804 465.715 378.39C470.626 381.597 475.641 389.835 471.548 395.236C469.183 398.358 465.767 400.279 462.529 402.39C450.563 411.749 444.878 408.529 433.836 400.076C423.617 392.149 410.486 389.815 397.559 392.1C393.79 392.743 390.128 393.9 386.674 395.539C378.612 399.366 370.796 406.036 362.84 410.385C343.352 421.036 365.37 430.244 375.011 435.995C377.995 437.929 381.233 440.185 383.208 443.168C384.27 444.784 384.977 446.606 385.284 448.515C385.967 452.777 385.571 469.281 385.036 474.213C384.809 476.311 383.707 478.304 381.784 479.514C376.644 480.089 365.287 471.751 360.534 468.576C342.483 456.516 321.723 447.763 319.272 423.439C318.208 412.793 321.456 402.166 328.29 393.934C331.579 389.907 335.702 386.193 340.065 383.356C361.668 369.308 373.774 353.916 400.494 351.206Z"/><path fill="#465AEE" d="M616.983 351.213C636.145 349.622 649.757 359.986 664.918 369.854C682.903 381.558 701.411 389.713 705.172 413.075C706.783 423.633 704.128 434.398 697.792 442.997C695.097 446.672 691.927 449.974 688.363 452.815C682.514 457.553 650.608 478.989 645.062 479.494C643.7 479.618 642.403 479.251 641.412 478.268C637.585 474.473 638.859 458.064 638.829 452.356C638.803 447.449 640.097 444.059 643.587 440.623L644.063 440.161C650.961 435.119 662.51 429.797 667.893 423.614C669.157 422.163 669.795 420.766 669.525 418.787C669.032 415.165 665.6 412.449 662.791 410.532C647.594 400.158 636.829 391.635 617.821 391.309C609.654 391.169 602.002 393.327 595.246 397.959C589.846 401.661 584.232 407.133 577.576 408.209C570.588 409.338 561.533 402.052 556.198 397.955C554.318 396.511 552.834 394.707 552.614 392.273C552.265 388.42 554.088 384.403 556.513 381.513C561.501 375.567 589.769 358.07 597.349 355.169C603.772 352.711 610.157 351.721 616.983 351.213Z"/><path fill="#465AEE" d="M504.351 286.662C506.42 286.248 509.765 286.44 512.003 286.301C538.394 284.652 557.475 302.649 578.371 315.644C581.644 317.633 584.722 319.846 587.561 322.317C591.354 325.621 587.966 330.142 584.682 332.192C578.985 335.749 570.364 342.375 563.964 343.885C552.278 346.642 542.467 333.241 532.961 328.655C528.019 326.222 526.383 325.982 521.05 325.094C502.584 323.155 494.717 327.474 479.934 337.477C476.347 339.904 472.597 342.521 468.37 343.678C462.403 345.312 456.956 343.165 451.826 340.217C447.674 337.83 436.818 331.853 435.73 327.118C435.407 325.712 435.613 324.657 436.459 323.46C440.04 318.397 477.303 295.484 484.46 292.293C490.848 289.446 497.443 287.669 504.351 286.662Z"/><path fill="#465AEE" d="M689.748 483.523C701.659 482.551 704.943 489.573 705.599 500.077C707.466 529.934 696.79 539.982 672.707 555.651C666.529 559.708 660.303 563.692 654.031 567.604C637.721 576.179 641.113 560.169 640.519 551.341C639.203 531.778 645.405 529.387 660.731 520.663C673.238 513.371 667.979 507.648 670.709 496.799C671.992 491.699 685.214 485.233 689.748 483.523Z"/><path fill="#465AEE" d="M328.632 483.597C337.403 482.81 342.18 486.72 349.255 491.591C357.982 496.616 353.499 505.332 355.017 510.942C358.158 522.552 384.836 525.917 383.371 541.281C382.583 549.549 388.3 571.114 375.252 570.163C369.041 567.672 363.667 563.112 358.381 559.73C337.368 546.284 317.812 535.212 318.936 506.844C319.343 496.591 317.069 489.342 328.632 483.597Z"/><path fill="#465AEE" d="M688.673 577.567C708.802 575.46 706.771 597.067 704.783 610.935C702.319 628.123 687.607 637.736 674.048 646.411C667.377 650.597 660.783 654.905 654.269 659.331C653 660.186 650.551 661.741 649.132 662.104C647.584 662.515 645.934 662.272 644.57 661.431C642.862 660.369 641.461 657.618 641.291 655.713C640.753 649.684 639.921 629.115 643.106 624.614C649.032 616.238 663.904 613.156 669.909 603.935C669.643 586.677 672.578 584.844 688.673 577.567Z"/><path fill="#465AEE" d="M331.675 577.168C338.205 577.719 339.806 579.835 344.8 582.231C359.981 589.514 350.969 598.877 358.131 607.95C364.035 614.212 376.705 617.537 381.138 624.781C384.681 630.571 383.281 650.405 382.872 657.622C382.602 662.375 377.042 662.661 372.581 660.645C361.276 654.034 349.715 645.618 338.949 638.622C322.678 628.049 317.224 611.382 318.615 592.766C319.317 583.366 321.847 578.458 331.675 577.168Z"/><path fill="#E8A23A" d="M590.647 555.705C597.064 554.179 603.806 556.218 608.301 561.044C612.796 565.871 614.351 572.74 612.373 579.032C610.395 585.324 605.188 590.068 598.739 591.453C588.92 593.563 579.232 587.377 577.015 577.581C574.797 567.786 580.877 558.03 590.647 555.705Z"/><path fill="#2DCA88" d="M427.296 555.622C433.755 554.708 440.206 557.339 444.184 562.509C448.162 567.679 449.051 574.589 446.512 580.598C443.973 586.607 438.398 590.785 431.919 591.537C422.073 592.678 413.14 585.692 411.874 575.862C410.609 566.032 417.482 557.011 427.296 555.622Z"/><path fill="#2DCA88" d="M510.259 347.055C516.709 346.064 523.194 348.621 527.231 353.749C531.269 358.876 532.234 365.779 529.758 371.817C527.283 377.855 521.749 382.093 515.274 382.91C505.449 384.149 496.452 377.264 495.08 367.456C493.708 357.649 500.471 348.56 510.259 347.055Z"/></svg>